<svg width="306" height="111" viewBox="0 0 306 111" fill="none" xmlns="http://www.w3.org/2000/svg">
<path d="M3.03034 0.876953H0.615479V110.51H115.739V0.876953H3.03034Z" fill="#FBED21"/>
<path d="M18.2534 73.9569C22.0836 72.4203 26.6268 70.9432 30.6387 70.9432C38.4984 70.9432 39.7844 74.084 43.7649 74.084C47.7455 74.084 51.2716 70.9432 58.1772 70.9432C65.0828 70.9432 68.6125 74.084 72.5895 74.084C76.5666 74.084 77.8561 70.9432 85.7158 70.9432C89.7277 70.9432 94.2709 72.423 98.1011 73.9569V81.5533C94.4142 79.9788 90.3568 78.353 86.3588 78.353C79.4916 78.353 78.0343 81.6101 72.5686 81.6101C66.3619 81.6101 65.0794 78.3908 58.1738 78.3908C51.2682 78.3908 49.9891 81.6101 43.7789 81.6101C38.3167 81.6101 36.8594 78.353 29.9922 78.353C25.9942 78.353 21.9368 79.9788 18.2499 81.5533V73.9569H18.2534Z" fill="#29AAE1"/>
<path d="M18.2534 64.0069V56.4078C22.0836 54.8739 26.6268 53.3942 30.6387 53.3942C38.4984 53.3942 39.7844 56.535 43.7649 56.535C47.7455 56.535 51.2716 53.3942 58.1772 53.3942C65.0828 53.3942 68.6125 56.535 72.5895 56.535C76.5666 56.535 77.8561 53.3942 85.7158 53.3942C89.7277 53.3942 94.2709 54.8739 98.1011 56.4078V64.0069C94.4142 62.4297 90.3568 60.8066 86.3588 60.8066C79.4916 60.8066 78.0343 64.0637 72.5686 64.0637C66.3619 64.0637 65.0794 60.8445 58.1738 60.8445C51.2682 60.8445 49.9891 64.0637 43.7789 64.0637C38.3167 64.0637 36.8594 60.8066 29.9922 60.8066C25.9942 60.8066 21.9368 62.4297 18.2499 64.0069H18.2534Z" fill="#29AAE1"/>
<path d="M18.2534 38.8589C22.0836 37.325 26.6268 35.8452 30.6387 35.8452C38.4984 35.8452 39.7844 38.986 43.7649 38.986C47.7455 38.986 51.2716 35.8452 58.1772 35.8452C65.0828 35.8452 68.6125 38.986 72.5895 38.986C76.5666 38.986 77.8561 35.8452 85.7158 35.8452C89.7277 35.8452 94.2709 37.325 98.1011 38.8589V46.458C94.4142 44.8835 90.3568 43.2576 86.3588 43.2576C79.4916 43.2576 78.0343 46.5148 72.5686 46.5148C66.3619 46.5148 65.0794 43.2955 58.1738 43.2955C51.2682 43.2955 49.9891 46.5148 43.7789 46.5148C38.3167 46.5148 36.8594 43.2576 29.9922 43.2576C25.9942 43.2576 21.9368 44.8808 18.2499 46.458V38.8589H18.2534Z" fill="#29AAE1"/>
<path fill-rule="evenodd" clip-rule="evenodd" d="M69.4094 13.4537L49.6466 52.1336L84.8806 40.1628L57.3385 97.931L67.1902 55.8777L31.474 69.1605L52.4844 13.4537H69.4094Z" fill="#EB2027"/>
<path fill-rule="evenodd" clip-rule="evenodd" d="M144.183 41.3423V56.3078H151.655C157.033 56.3078 160.629 56.0318 162.443 55.48C164.257 54.9281 165.679 54.0651 166.71 52.891C167.737 51.7142 168.255 50.3481 168.255 48.7899C168.255 46.8718 167.528 45.2892 166.084 44.0421C164.641 42.795 162.813 42.0159 160.598 41.7048C158.966 41.464 155.694 41.3423 150.774 41.3423H144.179H144.183ZM130.448 84.989V32.469H152.413C160.734 32.469 166.158 32.7314 168.688 33.2562C172.567 34.0435 175.824 35.7586 178.442 38.3989C181.063 41.0366 182.373 44.4452 182.373 48.6275C182.373 51.8549 181.622 54.5629 180.112 56.7623C178.602 58.9616 176.687 60.6876 174.363 61.9401C172.039 63.1927 169.673 64.0232 167.276 64.429C164.008 64.9295 159.287 65.181 153.098 65.181H144.183V84.9863H130.448V84.989Z" fill="#29AAE1"/>
<path fill-rule="evenodd" clip-rule="evenodd" d="M193.927 84.9889V32.9072H207.661V76.1103H241.679V84.9889H193.927Z" fill="#29AAE1"/>
<path fill-rule="evenodd" clip-rule="evenodd" d="M251.471 84.989V32.469H264.776L292.692 67.6645V32.469H305.384V84.989H291.668L264.171 50.4617V84.989H251.471Z" fill="#29AAE1"/>
</svg>
